<?xml version="1.0" standalone="no"?>
<!DOCTYPE svg PUBLIC "-//W3C//DTD SVG 20010904//EN"
 "http://www.w3.org/TR/2001/REC-SVG-20010904/DTD/svg10.dtd">
<svg version="1.0" xmlns="http://www.w3.org/2000/svg"
 width="300.000000pt" height="300.000000pt" viewBox="0 0 300.000000 300.000000"
 preserveAspectRatio="xMidYMid meet">
<metadata>
Created by potrace 1.14, written by Peter Selinger 2001-2017
</metadata>
<g transform="translate(0.000000,300.000000) scale(0.100000,-0.100000)"
fill="#000000" stroke="none">
<path d="M0 2685 l0 -315 315 0 315 0 0 315 0 315 -315 0 -315 0 0 -315z m540
0 l0 -225 -225 0 -225 0 0 225 0 225 225 0 225 0 0 -225z"/>
<path d="M180 2685 l0 -135 135 0 135 0 0 135 0 135 -135 0 -135 0 0 -135z"/>
<path d="M720 2955 l0 -45 45 0 45 0 0 45 0 45 -45 0 -45 0 0 -45z"/>
<path d="M1000 2955 l0 -45 -50 0 -50 0 0 -45 0 -45 -90 0 -90 0 0 -45 0 -45
45 0 45 0 0 -45 0 -45 -45 0 -45 0 0 -45 0 -45 90 0 90 0 0 -90 0 -90 -45 0
-45 0 0 45 0 45 -45 0 -45 0 0 -90 0 -90 45 0 45 0 0 -45 0 -45 -45 0 -45 0 0
-45 0 -45 -90 0 -90 0 0 45 0 45 45 0 45 0 0 45 0 45 -90 0 -90 0 0 -90 0 -90
-45 0 -45 0 0 45 0 45 -135 0 -135 0 0 -45 0 -45 -45 0 -45 0 0 -50 0 -50 45
0 45 0 0 -90 0 -90 -45 0 -45 0 0 -90 0 -90 45 0 45 0 0 -45 0 -45 45 0 45 0
0 -45 0 -45 -45 0 -45 0 0 -45 0 -45 45 0 45 0 0 -45 0 -45 45 0 45 0 0 -45 0
-45 -90 0 -90 0 0 45 0 45 -45 0 -45 0 0 -275 0 -275 90 0 90 0 0 45 0 45 45
0 45 0 0 -45 0 -45 45 0 45 0 0 45 0 45 45 0 45 0 0 -45 0 -45 135 0 135 0 0
-45 0 -45 45 0 45 0 0 -45 0 -45 -45 0 -45 0 0 -45 0 -45 45 0 45 0 0 45 0 45
95 0 95 0 0 45 0 45 -95 0 -95 0 0 180 0 180 45 0 45 0 0 -45 0 -45 95 0 95 0
0 45 0 45 45 0 45 0 0 -90 0 -90 -45 0 -45 0 0 -45 0 -45 45 0 45 0 0 -45 0
-45 -45 0 -45 0 0 -90 0 -90 -45 0 -45 0 0 -45 0 -45 45 0 45 0 0 -45 0 -45
-140 0 -140 0 0 -45 0 -45 45 0 45 0 0 -45 0 -45 50 0 50 0 0 -50 0 -50 360 0
360 0 0 50 0 50 45 0 45 0 0 45 0 45 -45 0 -45 0 0 45 0 45 -45 0 -45 0 0 -90
0 -90 -45 0 -45 0 0 90 0 90 -90 0 -90 0 0 135 0 135 -45 0 -45 0 0 -45 0 -45
-45 0 -45 0 0 90 0 90 45 0 45 0 0 45 0 45 -45 0 -45 0 0 45 0 45 45 0 45 0 0
45 0 45 45 0 45 0 0 45 0 45 45 0 45 0 0 -45 0 -45 45 0 45 0 0 -45 0 -45 90
0 90 0 0 90 0 90 45 0 45 0 0 95 0 95 45 0 45 0 0 45 0 45 -45 0 -45 0 0 45 0
45 45 0 45 0 0 135 0 135 -45 0 -45 0 0 45 0 45 95 0 95 0 0 -45 0 -45 45 0
45 0 0 -225 0 -225 -45 0 -45 0 0 -45 0 -45 -50 0 -50 0 0 -50 0 -50 50 0 50
0 0 -45 0 -45 -95 0 -95 0 0 -90 0 -90 -180 0 -180 0 0 -45 0 -45 45 0 45 0 0
-90 0 -90 -45 0 -45 0 0 -45 0 -45 45 0 45 0 0 45 0 45 45 0 45 0 0 -45 0 -45
90 0 90 0 0 90 0 90 95 0 95 0 0 45 0 45 -50 0 -50 0 0 45 0 45 50 0 50 0 0
90 0 90 45 0 45 0 0 -45 0 -45 45 0 45 0 0 -90 0 -90 -45 0 -45 0 0 -90 0 -90
45 0 45 0 0 -135 0 -135 45 0 45 0 0 45 0 45 45 0 45 0 0 45 0 45 45 0 45 0 0
-45 0 -45 45 0 45 0 0 -45 0 -45 45 0 45 0 0 90 0 90 45 0 45 0 0 -135 0 -135
-45 0 -45 0 0 -50 0 -50 135 0 135 0 0 50 0 50 -45 0 -45 0 0 45 0 45 95 0 95
0 0 45 0 45 -50 0 -50 0 0 45 0 45 50 0 50 0 0 45 0 45 -50 0 -50 0 0 90 0 90
50 0 50 0 0 90 0 90 -50 0 -50 0 0 -45 0 -45 -90 0 -90 0 0 45 0 45 45 0 45 0
0 45 0 45 45 0 45 0 0 45 0 45 -45 0 -45 0 0 50 0 50 -45 0 -45 0 0 45 0 45
90 0 90 0 0 45 0 45 50 0 50 0 0 45 0 45 -50 0 -50 0 0 45 0 45 50 0 50 0 0
90 0 90 -50 0 -50 0 0 45 0 45 50 0 50 0 0 90 0 90 -95 0 -95 0 0 45 0 45 45
0 45 0 0 50 0 50 -45 0 -45 0 0 -50 0 -50 -45 0 -45 0 0 95 0 95 45 0 45 0 0
45 0 45 -45 0 -45 0 0 -45 0 -45 -45 0 -45 0 0 45 0 45 -45 0 -45 0 0 -45 0
-45 -45 0 -45 0 0 45 0 45 -45 0 -45 0 0 -45 0 -45 -45 0 -45 0 0 -95 0 -95
-45 0 -45 0 0 -90 0 -90 -45 0 -45 0 0 -45 0 -45 -45 0 -45 0 0 135 0 135 45
0 45 0 0 50 0 50 45 0 45 0 0 45 0 45 -90 0 -90 0 0 45 0 45 -50 0 -50 0 0
-90 0 -90 -90 0 -90 0 0 -50 0 -50 45 0 45 0 0 -90 0 -90 -45 0 -45 0 0 45 0
45 -45 0 -45 0 0 -90 0 -90 45 0 45 0 0 -45 0 -45 -45 0 -45 0 0 -45 0 -45 45
0 45 0 0 -45 0 -45 -135 0 -135 0 0 45 0 45 -45 0 -45 0 0 45 0 45 45 0 45 0
0 45 0 45 45 0 45 0 0 90 0 90 -45 0 -45 0 0 95 0 95 90 0 90 0 0 45 0 45 45
0 45 0 0 225 0 225 45 0 45 0 0 -135 0 -135 45 0 45 0 0 90 0 90 50 0 50 0 0
-90 0 -90 45 0 45 0 0 135 0 135 45 0 45 0 0 -45 0 -45 45 0 45 0 0 45 0 45
-45 0 -45 0 0 45 0 45 45 0 45 0 0 135 0 135 -45 0 -45 0 0 -90 0 -90 -185 0
-185 0 0 -45 0 -45 -45 0 -45 0 0 90 0 90 45 0 45 0 0 45 0 45 -45 0 -45 0 0
-45 0 -45 -90 0 -90 0 0 45 0 45 -90 0 -90 0 0 -45 0 -45 45 0 45 0 0 -45 0
-45 -45 0 -45 0 0 -45 0 -45 -45 0 -45 0 0 -45 0 -45 -45 0 -45 0 0 -45 0 -45
45 0 45 0 0 -90 0 -90 45 0 45 0 0 -185 0 -185 -45 0 -45 0 0 -45 0 -45 -45 0
-45 0 0 -45 0 -45 45 0 45 0 0 45 0 45 45 0 45 0 0 -135 0 -135 -45 0 -45 0 0
45 0 45 -90 0 -90 0 0 45 0 45 -45 0 -45 0 0 45 0 45 -50 0 -50 0 0 45 0 45
-90 0 -90 0 0 50 0 50 140 0 140 0 0 45 0 45 45 0 45 0 0 -45 0 -45 90 0 90 0
0 45 0 45 -90 0 -90 0 0 45 0 45 45 0 45 0 0 90 0 90 -45 0 -45 0 0 -45 0 -45
-45 0 -45 0 0 180 0 180 -50 0 -50 0 0 45 0 45 95 0 95 0 0 -45 0 -45 45 0 45
0 0 45 0 45 -45 0 -45 0 0 45 0 45 90 0 90 0 0 45 0 45 -135 0 -135 0 0 -45z
m540 -180 l0 -45 90 0 90 0 0 -45 0 -45 -45 0 -45 0 0 -225 0 -225 -90 0 -90
0 0 90 0 90 -45 0 -45 0 0 90 0 90 -45 0 -45 0 0 45 0 45 135 0 135 0 0 45 0
45 -45 0 -45 0 0 45 0 45 45 0 45 0 0 -45z m550 -90 l0 -45 -45 0 -45 0 0 45
0 45 45 0 45 0 0 -45z m-1090 -405 l0 -90 -50 0 -50 0 0 90 0 90 50 0 50 0 0
-90z m1450 -230 l0 -140 -45 0 -45 0 0 -90 0 -90 45 0 45 0 0 -45 0 -45 -45 0
-45 0 0 45 0 45 -45 0 -45 0 0 -135 0 -135 45 0 45 0 0 45 0 45 45 0 45 0 0
-45 0 -45 -45 0 -45 0 0 -45 0 -45 -45 0 -45 0 0 -45 0 -45 -45 0 -45 0 0 45
0 45 45 0 45 0 0 45 0 45 -45 0 -45 0 0 90 0 90 -45 0 -45 0 0 45 0 45 45 0
45 0 0 45 0 45 45 0 45 0 0 45 0 45 45 0 45 0 0 140 0 140 45 0 45 0 0 -140z
m-2180 -45 l0 -95 45 0 45 0 0 45 0 45 180 0 180 0 0 -90 0 -90 -45 0 -45 0 0
-45 0 -45 -45 0 -45 0 0 -45 0 -45 90 0 90 0 0 45 0 45 45 0 45 0 0 90 0 90
45 0 45 0 0 -45 0 -45 50 0 50 0 0 -45 0 -45 45 0 45 0 0 -45 0 -45 45 0 45 0
0 -45 0 -45 90 0 90 0 0 -45 0 -45 45 0 45 0 0 -90 0 -90 -45 0 -45 0 0 45 0
45 -45 0 -45 0 0 -185 0 -185 -45 0 -45 0 0 230 0 230 -45 0 -45 0 0 -45 0
-45 -95 0 -95 0 0 -45 0 -45 95 0 95 0 0 -45 0 -45 -45 0 -45 0 0 -95 0 -95
-50 0 -50 0 0 95 0 95 -45 0 -45 0 0 -45 0 -45 -45 0 -45 0 0 -95 0 -95 -45 0
-45 0 0 -45 0 -45 -90 0 -90 0 0 45 0 45 -45 0 -45 0 0 -45 0 -45 -45 0 -45 0
0 45 0 45 -45 0 -45 0 0 -45 0 -45 -45 0 -45 0 0 90 0 90 45 0 45 0 0 50 0 50
45 0 45 0 0 -50 0 -50 90 0 90 0 0 50 0 50 90 0 90 0 0 45 0 45 -90 0 -90 0 0
45 0 45 -90 0 -90 0 0 45 0 45 90 0 90 0 0 -45 0 -45 90 0 90 0 0 45 0 45 -45
0 -45 0 0 45 0 45 -90 0 -90 0 0 45 0 45 45 0 45 0 0 45 0 45 -135 0 -135 0 0
230 0 230 45 0 45 0 0 -95z m1730 45 l0 -50 -50 0 -50 0 0 50 0 50 50 0 50 0
0 -50z m630 -45 l0 -95 -45 0 -45 0 0 95 0 95 45 0 45 0 0 -95z m180 -140 l0
-45 45 0 45 0 0 -45 0 -45 -45 0 -45 0 0 -45 0 -45 45 0 45 0 0 -90 0 -90 -45
0 -45 0 0 -45 0 -45 -90 0 -90 0 0 -90 0 -90 -45 0 -45 0 0 -45 0 -45 -135 0
-135 0 0 -50 0 -50 90 0 90 0 0 -90 0 -90 -135 0 -135 0 0 45 0 45 45 0 45 0
0 45 0 45 -135 0 -135 0 0 50 0 50 45 0 45 0 0 45 0 45 45 0 45 0 0 -45 0 -45
45 0 45 0 0 45 0 45 45 0 45 0 0 45 0 45 90 0 90 0 0 90 0 90 45 0 45 0 0 45
0 45 -45 0 -45 0 0 45 0 45 45 0 45 0 0 45 0 45 45 0 45 0 0 90 0 90 45 0 45
0 0 -45z m-1000 -450 l0 -45 -45 0 -45 0 0 45 0 45 45 0 45 0 0 -45z m-180
-90 l0 -45 45 0 45 0 0 -90 0 -90 -45 0 -45 0 0 -50 0 -50 -45 0 -45 0 0 50 0
50 -90 0 -90 0 0 45 0 45 90 0 90 0 0 90 0 90 45 0 45 0 0 -45z m1090 -275 l0
-50 45 0 45 0 0 -45 0 -45 -45 0 -45 0 0 -45 0 -45 -45 0 -45 0 0 140 0 140
45 0 45 0 0 -50z m-180 -455 l0 -135 -135 0 -135 0 0 135 0 135 135 0 135 0 0
-135z m180 90 l0 -45 45 0 45 0 0 -45 0 -45 -45 0 -45 0 0 45 0 45 -45 0 -45
0 0 45 0 45 45 0 45 0 0 -45z m-910 -90 l0 -45 -45 0 -45 0 0 -45 0 -45 -45 0
-45 0 0 45 0 45 45 0 45 0 0 45 0 45 45 0 45 0 0 -45z m1000 -180 l0 -45 -45
0 -45 0 0 45 0 45 45 0 45 0 0 -45z m-1540 -90 l0 -45 45 0 45 0 0 -90 0 -90
-90 0 -90 0 0 45 0 45 -45 0 -45 0 0 -45 0 -45 -45 0 -45 0 0 45 0 45 45 0 45
0 0 45 0 45 45 0 45 0 0 45 0 45 45 0 45 0 0 -45z"/>
<path d="M1450 2415 l0 -45 45 0 45 0 0 45 0 45 -45 0 -45 0 0 -45z"/>
<path d="M360 1820 l0 -90 90 0 90 0 0 45 0 45 45 0 45 0 0 45 0 45 -135 0
-135 0 0 -90z"/>
<path d="M810 1685 l0 -45 -45 0 -45 0 0 -45 0 -45 45 0 45 0 0 45 0 45 95 0
95 0 0 -45 0 -45 -50 0 -50 0 0 -45 0 -45 95 0 95 0 0 90 0 90 -45 0 -45 0 0
45 0 45 -95 0 -95 0 0 -45z"/>
<path d="M540 1505 l0 -45 45 0 45 0 0 45 0 45 -45 0 -45 0 0 -45z"/>
<path d="M630 1235 l0 -45 45 0 45 0 0 45 0 45 -45 0 -45 0 0 -45z"/>
<path d="M450 955 l0 -45 90 0 90 0 0 45 0 45 -90 0 -90 0 0 -45z"/>
<path d="M2630 1595 l0 -45 45 0 45 0 0 -45 0 -45 45 0 45 0 0 45 0 45 -45 0
-45 0 0 45 0 45 -45 0 -45 0 0 -45z"/>
<path d="M1540 1145 l0 -45 45 0 45 0 0 45 0 45 -45 0 -45 0 0 -45z"/>
<path d="M2360 595 l0 -45 45 0 45 0 0 45 0 45 -45 0 -45 0 0 -45z"/>
<path d="M1900 2955 l0 -45 95 0 95 0 0 45 0 45 -95 0 -95 0 0 -45z"/>
<path d="M2360 2685 l0 -315 320 0 320 0 0 315 0 315 -320 0 -320 0 0 -315z
m540 0 l0 -225 -225 0 -225 0 0 225 0 225 225 0 225 0 0 -225z"/>
<path d="M2540 2685 l0 -135 135 0 135 0 0 135 0 135 -135 0 -135 0 0 -135z"/>
<path d="M2180 2370 l0 -90 45 0 45 0 0 90 0 90 -45 0 -45 0 0 -90z"/>
<path d="M2900 2235 l0 -45 50 0 50 0 0 45 0 45 -50 0 -50 0 0 -45z"/>
<path d="M0 320 l0 -320 315 0 315 0 0 320 0 320 -315 0 -315 0 0 -320z m540
5 l0 -225 -225 0 -225 0 0 225 0 225 225 0 225 0 0 -225z"/>
<path d="M180 325 l0 -135 135 0 135 0 0 135 0 135 -135 0 -135 0 0 -135z"/>
<path d="M1900 280 l0 -180 95 0 95 0 0 45 0 45 -45 0 -45 0 0 45 0 45 45 0
45 0 0 45 0 45 -45 0 -45 0 0 45 0 45 -50 0 -50 0 0 -180z"/>
<path d="M2180 50 l0 -50 90 0 90 0 0 50 0 50 -90 0 -90 0 0 -50z"/>
</g>
</svg>
